<?xml version="1.0" encoding="UTF-8" standalone="no"?>
<!DOCTYPE svg PUBLIC "-//W3C//DTD SVG 1.1//EN"
 "http://www.w3.org/Graphics/SVG/1.1/DTD/svg11.dtd">
<!-- Generated by graphviz version 2.38.0 (20140413.2041)
 -->
<!-- Title: net.ulno.fulib Pages: 1 -->
<svg width="739px" height="150px"
 viewBox="0.00 0.00 739.00 150.00" xmlns="http://www.w3.org/2000/svg" xmlns:xlink="http://www.w3.org/1999/xlink">
<g id="graph0" class="graph" transform="scale(1.0 1.0) rotate(0) translate(4 146)">
<title>net.ulno.fulib</title>
<polygon fill="white" stroke="none" points="-4,4 -4,-146 735,-146 735,4 -4,4"/>
<!-- player1 -->
<g id="node1" class="node"><title>player1</title>
<polygon fill="none" stroke="black" points="327.5,-120.5 327.5,-137.5 403.5,-137.5 403.5,-120.5 327.5,-120.5"/>
<text text-anchor="start" x="336" y="-127.5" font-family="Times New Roman,serif" text-decoration="underline" font-size="10.00">player1 :Player</text>
<polygon fill="none" stroke="black" points="327.5,-92.5 327.5,-120.5 403.5,-120.5 403.5,-92.5 327.5,-92.5"/>
<text text-anchor="start" x="330.5" y="-109.5" font-family="Times New Roman,serif" font-size="10.00">isHisTurn = true</text>
<text text-anchor="start" x="330.5" y="-98.5" font-family="Times New Roman,serif" font-size="10.00">name = &quot;player1&quot;</text>
</g>
<!-- 1 -->
<g id="node2" class="node"><title>1</title>
<polygon fill="none" stroke="black" points="8.5,-31.5 8.5,-48.5 81.5,-48.5 81.5,-31.5 8.5,-31.5"/>
<text text-anchor="start" x="26.5" y="-38.5" font-family="Times New Roman,serif" text-decoration="underline" font-size="10.00">1 :Bucket</text>
<polygon fill="none" stroke="black" points="8.5,-3.5 8.5,-31.5 81.5,-31.5 81.5,-3.5 8.5,-3.5"/>
<text text-anchor="start" x="11.5" y="-20.5" font-family="Times New Roman,serif" font-size="10.00">id = 1</text>
<text text-anchor="start" x="11.5" y="-9.5" font-family="Times New Roman,serif" font-size="10.00">pebbleCount = 1</text>
</g>
<!-- player1&#45;&gt;1 -->
<g id="edge1" class="edge"><title>player1&#45;&gt;1</title>
<path fill="none" stroke="black" d="M319.098,-107.096C264.953,-97.7174 173.187,-79.5186 97.5,-53 94.7054,-52.0208 91.8638,-50.9363 89.0217,-49.7828"/>
<text text-anchor="middle" x="105.022" y="-52.7828" font-family="Times New Roman,serif" font-size="10.00">buckets</text>
<text text-anchor="middle" x="306.598" y="-110.096" font-family="Times New Roman,serif" font-size="10.00">player</text>
</g>
<!-- 2 -->
<g id="node3" class="node"><title>2</title>
<polygon fill="none" stroke="black" points="115.5,-31.5 115.5,-48.5 188.5,-48.5 188.5,-31.5 115.5,-31.5"/>
<text text-anchor="start" x="133.5" y="-38.5" font-family="Times New Roman,serif" text-decoration="underline" font-size="10.00">2 :Bucket</text>
<polygon fill="none" stroke="black" points="115.5,-3.5 115.5,-31.5 188.5,-31.5 188.5,-3.5 115.5,-3.5"/>
<text text-anchor="start" x="118.5" y="-20.5" font-family="Times New Roman,serif" font-size="10.00">id = 2</text>
<text text-anchor="start" x="118.5" y="-9.5" font-family="Times New Roman,serif" font-size="10.00">pebbleCount = 0</text>
</g>
<!-- player1&#45;&gt;2 -->
<g id="edge2" class="edge"><title>player1&#45;&gt;2</title>
<path fill="none" stroke="black" d="M319.288,-98.0128C286.881,-86.1683 242.699,-69.4509 204.5,-53 201.78,-51.8287 198.997,-50.5956 196.198,-49.3296"/>
<text text-anchor="middle" x="212.198" y="-52.3296" font-family="Times New Roman,serif" font-size="10.00">buckets</text>
<text text-anchor="middle" x="306.788" y="-90.0128" font-family="Times New Roman,serif" font-size="10.00">player</text>
</g>
<!-- 3 -->
<g id="node4" class="node"><title>3</title>
<polygon fill="none" stroke="black" points="222.5,-31.5 222.5,-48.5 295.5,-48.5 295.5,-31.5 222.5,-31.5"/>
<text text-anchor="start" x="240.5" y="-38.5" font-family="Times New Roman,serif" text-decoration="underline" font-size="10.00">3 :Bucket</text>
<polygon fill="none" stroke="black" points="222.5,-3.5 222.5,-31.5 295.5,-31.5 295.5,-3.5 222.5,-3.5"/>
<text text-anchor="start" x="225.5" y="-20.5" font-family="Times New Roman,serif" font-size="10.00">id = 3</text>
<text text-anchor="start" x="225.5" y="-9.5" font-family="Times New Roman,serif" font-size="10.00">pebbleCount = 1</text>
</g>
<!-- player1&#45;&gt;3 -->
<g id="edge3" class="edge"><title>player1&#45;&gt;3</title>
<path fill="none" stroke="black" d="M333.975,-88.8677C320.167,-77.6402 303.994,-64.4906 290.169,-53.2497"/>
<text text-anchor="middle" x="274.169" y="-56.2497" font-family="Times New Roman,serif" font-size="10.00">buckets</text>
<text text-anchor="middle" x="346.475" y="-80.8677" font-family="Times New Roman,serif" font-size="10.00">player</text>
</g>
<!-- 4 -->
<g id="node5" class="node"><title>4</title>
<polygon fill="none" stroke="black" points="329.5,-31.5 329.5,-48.5 402.5,-48.5 402.5,-31.5 329.5,-31.5"/>
<text text-anchor="start" x="347.5" y="-38.5" font-family="Times New Roman,serif" text-decoration="underline" font-size="10.00">4 :Bucket</text>
<polygon fill="none" stroke="black" points="329.5,-3.5 329.5,-31.5 402.5,-31.5 402.5,-3.5 329.5,-3.5"/>
<text text-anchor="start" x="332.5" y="-20.5" font-family="Times New Roman,serif" font-size="10.00">id = 4</text>
<text text-anchor="start" x="332.5" y="-9.5" font-family="Times New Roman,serif" font-size="10.00">pebbleCount = 2</text>
</g>
<!-- player1&#45;&gt;4 -->
<g id="edge4" class="edge"><title>player1&#45;&gt;4</title>
<path fill="none" stroke="black" d="M365.5,-88.8677C365.5,-77.6402 365.5,-64.4906 365.5,-53.2497"/>
<text text-anchor="middle" x="349.5" y="-56.2497" font-family="Times New Roman,serif" font-size="10.00">buckets</text>
<text text-anchor="middle" x="378" y="-80.8677" font-family="Times New Roman,serif" font-size="10.00">player</text>
</g>
<!-- 5 -->
<g id="node6" class="node"><title>5</title>
<polygon fill="none" stroke="black" points="436.5,-31.5 436.5,-48.5 509.5,-48.5 509.5,-31.5 436.5,-31.5"/>
<text text-anchor="start" x="454.5" y="-38.5" font-family="Times New Roman,serif" text-decoration="underline" font-size="10.00">5 :Bucket</text>
<polygon fill="none" stroke="black" points="436.5,-3.5 436.5,-31.5 509.5,-31.5 509.5,-3.5 436.5,-3.5"/>
<text text-anchor="start" x="439.5" y="-20.5" font-family="Times New Roman,serif" font-size="10.00">id = 5</text>
<text text-anchor="start" x="439.5" y="-9.5" font-family="Times New Roman,serif" font-size="10.00">pebbleCount = 0</text>
</g>
<!-- player1&#45;&gt;5 -->
<g id="edge5" class="edge"><title>player1&#45;&gt;5</title>
<path fill="none" stroke="black" d="M397.025,-88.8677C410.833,-77.6402 427.006,-64.4906 440.831,-53.2497"/>
<text text-anchor="middle" x="424.831" y="-56.2497" font-family="Times New Roman,serif" font-size="10.00">buckets</text>
<text text-anchor="middle" x="409.525" y="-80.8677" font-family="Times New Roman,serif" font-size="10.00">player</text>
</g>
<!-- 6 -->
<g id="node7" class="node"><title>6</title>
<polygon fill="none" stroke="black" points="543.5,-31.5 543.5,-48.5 616.5,-48.5 616.5,-31.5 543.5,-31.5"/>
<text text-anchor="start" x="561.5" y="-38.5" font-family="Times New Roman,serif" text-decoration="underline" font-size="10.00">6 :Bucket</text>
<polygon fill="none" stroke="black" points="543.5,-3.5 543.5,-31.5 616.5,-31.5 616.5,-3.5 543.5,-3.5"/>
<text text-anchor="start" x="546.5" y="-20.5" font-family="Times New Roman,serif" font-size="10.00">id = 6</text>
<text text-anchor="start" x="546.5" y="-9.5" font-family="Times New Roman,serif" font-size="10.00">pebbleCount = 0</text>
</g>
<!-- player1&#45;&gt;6 -->
<g id="edge6" class="edge"><title>player1&#45;&gt;6</title>
<path fill="none" stroke="black" d="M411.712,-98.0128C444.119,-86.1683 488.301,-69.4509 526.5,-53 529.22,-51.8287 532.003,-50.5956 534.802,-49.3296"/>
<text text-anchor="middle" x="518.802" y="-52.3296" font-family="Times New Roman,serif" font-size="10.00">buckets</text>
<text text-anchor="middle" x="424.212" y="-101.013" font-family="Times New Roman,serif" font-size="10.00">player</text>
</g>
<!-- h -->
<g id="node8" class="node"><title>h</title>
<polygon fill="none" stroke="black" points="650.5,-26.5 650.5,-43.5 723.5,-43.5 723.5,-26.5 650.5,-26.5"/>
<text text-anchor="start" x="668.5" y="-33.5" font-family="Times New Roman,serif" text-decoration="underline" font-size="10.00">h :House</text>
<polygon fill="none" stroke="black" points="650.5,-9.5 650.5,-26.5 723.5,-26.5 723.5,-9.5 650.5,-9.5"/>
<text text-anchor="start" x="653.5" y="-15.5" font-family="Times New Roman,serif" font-size="10.00">pebbleCount = 2</text>
</g>
<!-- player1&#45;&gt;h -->
<g id="edge7" class="edge"><title>player1&#45;&gt;h</title>
<path fill="none" stroke="black" d="M411.902,-107.096C466.047,-97.7174 557.813,-79.5186 633.5,-53 638.029,-51.4131 642.682,-49.5494 647.26,-47.5639"/>
<text text-anchor="middle" x="659.76" y="-50.5639" font-family="Times New Roman,serif" font-size="10.00">house</text>
<text text-anchor="middle" x="424.402" y="-110.096" font-family="Times New Roman,serif" font-size="10.00">player</text>
</g>
</g>
</svg>
